<svg width="300" height="360" viewBox="0 0 300 360" fill="none" xmlns="http://www.w3.org/2000/svg">
<path d="M164.714 84.494L175.835 53.3501C177.644 41.0657 183.949 35.4646 189.909 33.4082L194.91 58.3017L190.813 66.7709L178.309 92.7197C176.553 96.6702 177.325 99.1054 176.154 103.543L162.346 96.2643C162.666 92.2581 163.461 88.306 164.714 84.494Z" fill="#EDEDED"/>
<g style="mix-blend-mode:multiply" opacity="0.15">
<path d="M177.351 83.33L182.033 53.3496L190.813 66.8787L178.309 92.7192C176.553 96.6697 177.324 99.1049 176.154 103.542L173.121 101.973C174.744 94.5862 175.648 89.337 177.351 83.33Z" fill="#3C3C3B"/>
</g>
<path d="M220.158 203.36L220.876 213.805C217.95 216.321 215.103 218.459 212.895 218.324C211.051 221.992 208.464 225.222 205.305 227.801C202.145 230.38 198.485 232.249 194.565 233.287C187.541 233.476 185.014 230.581 185.333 226.631C186.956 216.835 199.673 212.506 201.881 205.714L220.158 203.36Z" fill="#1D1D1B"/>
<path d="M200.365 205.687C204.278 207.89 208.662 209.089 213.135 209.178C214.658 209.174 216.157 208.795 217.505 208.074C218.853 207.353 220.01 206.312 220.877 205.038C220.989 198.695 221.522 192.367 222.473 186.097C225.489 173.782 226.326 161.019 224.947 148.405L235.27 112.823L233.939 108.278L225.958 78.3242L208.452 81.5983C202.972 102.108 199.114 122.186 203.929 142.831L204.435 155.17C203.929 174.489 203.105 197.164 200.365 205.687Z" fill="#3C3C3B"/>
<g style="mix-blend-mode:multiply" opacity="0.3">
<path d="M213.134 209.069C214.648 209.078 216.141 208.716 217.488 208.014C218.836 207.312 219.998 206.292 220.876 205.038C220.988 198.695 221.522 192.367 222.472 186.097C225.488 173.782 226.326 161.019 224.946 148.405L235.269 112.824L233.939 108.278L220.876 101.216C223.536 115.854 223.536 130.114 217.763 143.67C221.648 163.72 218.827 185.935 213.134 209.069Z" fill="#3F668A"/>
</g>
<path d="M267.779 229.58L268.843 242.487C267.473 245.15 265.352 247.337 262.751 248.764C258.6 256.882 252.854 261.184 245.671 261.887C239.312 262.483 235.375 260.264 235.029 256.259C235.641 247.411 249.182 242.081 250.566 234.883L267.779 229.58Z" fill="#1D1D1B"/>
<path d="M209.968 83.9254L212.468 90.2029L214.277 94.7487C216.938 102.866 222.046 107.168 228.99 108.278C230.692 128.328 232.555 148.189 239.632 161.231C240.35 168.076 243.808 172.27 245.564 178.846C249.034 197.34 250.701 216.137 250.539 234.964C252.553 236.381 254.881 237.266 257.315 237.54C259.748 237.814 262.211 237.468 264.48 236.534L265.518 236.02C266.394 235.548 267.146 234.869 267.71 234.04C268.275 233.211 268.636 232.257 268.763 231.257C268.152 201.331 274.909 185.258 261.394 159.31C262.591 136.283 260.995 127.435 258.547 105.356C261.394 92.1511 259.372 82.8431 253.732 76.3762C253.145 75.7027 252.523 75.0615 251.87 74.4551L244.819 75.9974L209.968 83.9254Z" fill="#3C3C3B"/>
<path d="M189.854 69.6928C194.762 76.9244 201.303 82.8535 208.929 86.983C210.038 88.0925 211.22 89.1231 212.468 90.0677C225.398 99.9981 241.413 97.4546 249.315 89.3371C250.843 87.8426 252.062 86.0536 252.903 84.0745C253.743 82.0954 254.188 79.9659 254.21 77.8103C254.051 77.2962 253.864 76.7821 253.705 76.295C252.268 72.2363 251.044 68.3399 249.741 64.6059C245.511 51.7803 241.919 41.1464 235.933 34.8418C230.373 30.5937 218.746 27.8337 212.494 30.5937C201.613 24.3703 190.493 30.296 181.713 36.6006C176.844 53.7826 185.145 58.5448 189.854 69.6928Z" fill="#EDEDED"/>
<g style="mix-blend-mode:multiply" opacity="0.15">
<path d="M231.357 58.6797C236.482 63.9091 240.998 69.7196 244.819 75.997C247.259 80.1183 248.767 84.7393 249.236 89.5261C254.078 93.8554 255.035 99.4564 251.896 106.492C254.716 128.138 259.345 153.302 252.907 160.743C267.353 171.134 264.081 204.767 264.4 236.506L265.438 235.992C266.325 235.533 267.091 234.862 267.67 234.038C268.249 233.214 268.624 232.26 268.763 231.257C268.151 201.331 274.909 185.258 261.394 159.309C262.591 136.283 260.995 127.435 258.547 105.355C261.394 92.1507 259.372 82.8427 253.732 76.3758C252.295 72.317 251.071 68.4206 249.768 64.6866L231.357 58.6797Z" fill="#3C3C3B"/>
</g>
<path d="M291.856 110.686L295.873 118.127L298.693 125.081L299.065 131.088C299.278 132.441 298.081 133.415 297.868 131.765L298.693 138.096C299.065 139.909 297.442 140.802 296.831 139.098L294.755 131.224V143.346C294.755 145.159 292.973 146.051 292.494 143.968L290.658 131.602L290.046 139.098L288.636 144.509C287.918 146.511 285.816 146.593 285.976 144.509L286.88 137.312C286.88 137.312 286.375 132.252 285.976 129.952C285.16 128.613 284.272 127.321 283.315 126.083L277.409 133.902C275.627 135.58 273.951 134.119 275.175 131.846L279.804 121.023L283.395 115.611L283.688 115.151L283.156 110.984L290.738 108.278L291.856 110.686Z" fill="#FCAF75"/>
<path d="M235.934 34.8418C248.571 40.064 261.687 50.1026 275.069 62.9282C282.545 75.1315 287.573 92.6922 292.229 111.416C290.42 113.771 287.414 114.122 283.423 114.122C277.863 101.188 268.817 89.7699 264.241 76.2408C255.675 75.1315 243.41 65.9587 231.358 58.653C222.472 44.718 221.381 36.9523 235.934 34.8418Z" fill="#EDEDED"/>
<path d="M89.715 236.858C89.715 237.474 89.8951 238.077 90.2325 238.589C90.5699 239.102 91.0493 239.501 91.6099 239.735C92.1705 239.97 92.787 240.03 93.3812 239.908C93.9754 239.785 94.5205 239.486 94.9473 239.048C95.3741 238.611 95.6634 238.054 95.7784 237.448C95.8934 236.843 95.829 236.216 95.5934 235.648C95.3577 235.08 94.9614 234.596 94.4548 234.257C93.9482 233.919 93.3541 233.741 92.7479 233.746C92.3473 233.746 91.9508 233.827 91.581 233.984C91.2113 234.14 90.8758 234.37 90.5938 234.659C90.3118 234.949 90.089 235.292 89.9381 235.669C89.7873 236.047 89.7114 236.451 89.715 236.858Z" fill="#030403"/>
<path d="M96.8989 268.274C96.8883 268.891 97.0587 269.498 97.3884 270.017C97.7181 270.536 98.1922 270.943 98.7502 271.187C99.3083 271.431 99.925 271.5 100.522 271.386C101.119 271.272 101.669 270.98 102.102 270.547C102.536 270.114 102.832 269.56 102.955 268.955C103.077 268.35 103.02 267.721 102.79 267.15C102.56 266.578 102.168 266.089 101.664 265.744C101.159 265.4 100.566 265.216 99.9584 265.216C99.5601 265.212 99.165 265.289 98.7957 265.44C98.4264 265.592 98.0901 265.816 97.806 266.1C97.5219 266.384 97.2956 266.722 97.1399 267.095C96.9843 267.468 96.9024 267.868 96.8989 268.274Z" fill="#030403"/>
<path d="M47.7065 282.722C47.7065 283.337 47.886 283.939 48.2222 284.451C48.5583 284.962 49.0362 285.361 49.5952 285.597C50.1543 285.832 50.7694 285.894 51.3629 285.774C51.9564 285.654 52.5016 285.357 52.9295 284.922C53.3573 284.487 53.6487 283.933 53.7668 283.329C53.8848 282.725 53.8242 282.1 53.5927 281.531C53.3611 280.963 52.969 280.477 52.4658 280.135C51.9627 279.793 51.3712 279.61 50.7661 279.61C49.9568 279.617 49.1826 279.948 48.6103 280.53C48.0381 281.112 47.7135 281.899 47.7065 282.722Z" fill="#030403"/>
<path d="M10.8335 260.426C10.8335 261.041 11.0129 261.643 11.3491 262.155C11.6853 262.666 12.1631 263.065 12.7222 263.301C13.2812 263.536 13.8964 263.598 14.4899 263.478C15.0834 263.358 15.6285 263.061 16.0564 262.626C16.4843 262.191 16.7757 261.637 16.8937 261.033C17.0118 260.429 16.9512 259.804 16.7196 259.235C16.4881 258.667 16.0959 258.181 15.5928 257.839C15.0896 257.497 14.4981 257.314 13.893 257.314C13.0816 257.314 12.3034 257.642 11.7296 258.226C11.1558 258.809 10.8335 259.601 10.8335 260.426Z" fill="#030403"/>
<path d="M33.4736 230.202C33.4737 230.818 33.6538 231.421 33.9912 231.933C34.3285 232.445 34.8079 232.844 35.3685 233.079C35.9291 233.314 36.5457 233.374 37.1399 233.251C37.7341 233.129 38.2792 232.83 38.706 232.392C39.1328 231.954 39.422 231.397 39.5371 230.792C39.6521 230.187 39.5877 229.56 39.3521 228.992C39.1164 228.424 38.7201 227.94 38.2135 227.601C37.7069 227.263 37.1128 227.085 36.5065 227.09C35.6997 227.097 34.9283 227.428 34.3603 228.011C33.7923 228.594 33.4736 229.381 33.4736 230.202Z" fill="#030403"/>
<path d="M33.2614 227.767V223.492L38.9281 226.09L60.1851 246.248L91.0463 230.933L95.5158 229.283V233.585L69.4701 251.687L103.79 259.913V264.188L100.89 267.489L63.5107 258.533L53.8798 281.559L47.6012 280.991V276.716L50.5543 257.342L10.3017 259.074L9.29077 255.394V251.119L48.5057 249.739L33.2614 227.767Z" fill="#030403"/>
<path d="M33.2614 223.492L38.9281 221.814L60.1851 241.973L91.0463 226.658L95.5158 229.283L69.4701 247.412L103.79 259.913L100.89 263.214L63.5107 254.257L53.8798 277.284L47.6012 276.716L50.5543 253.067L10.3017 254.799L9.29077 251.119L48.5057 245.463L33.2614 223.492Z" fill="#878787"/>
<path d="M54.3319 245.923C53.8748 246.142 53.4884 246.488 53.2177 246.922C52.947 247.355 52.8032 247.858 52.8032 248.372C52.8032 248.886 52.947 249.389 53.2177 249.822C53.4884 250.256 53.8748 250.602 54.3319 250.821C55.6263 251.489 57.0573 251.837 58.5087 251.837C59.9602 251.837 61.3912 251.489 62.6856 250.821C63.1426 250.602 63.5291 250.256 63.7998 249.822C64.0705 249.389 64.2142 248.886 64.2142 248.372C64.2142 247.858 64.0705 247.355 63.7998 246.922C63.5291 246.488 63.1426 246.142 62.6856 245.923C61.3912 245.255 59.9602 244.907 58.5087 244.907C57.0573 244.907 55.6263 245.255 54.3319 245.923Z" fill="#030403"/>
<path d="M64.3893 209.746H52.6035V248.358H64.3893V209.746Z" fill="#030403"/>
<path d="M58.935 173.461L105.599 200.844C107.754 202.116 109.484 201.087 109.484 198.544C109.335 195.345 108.443 192.227 106.88 189.447C105.317 186.667 103.127 184.304 100.491 182.553L58.935 158.2C56.8067 156.929 55.0508 157.957 55.0508 160.473V166.615C55.1322 167.985 55.5255 169.316 56.1996 170.504C56.8737 171.692 57.8101 172.704 58.935 173.461Z" fill="#4A4A49"/>
<path d="M42.6268 72.1551L45.0212 88.39L54.519 152.599C54.6409 153.251 54.8373 153.887 55.1043 154.493C55.6891 155.74 56.6121 156.792 57.7647 157.524L64.2296 161.312C64.5377 161.537 64.8965 161.68 65.2731 161.727C65.6497 161.775 66.0319 161.725 66.3846 161.582C66.8223 161.256 67.1511 160.8 67.3271 160.278C67.5031 159.756 67.5177 159.191 67.369 158.66L66.2782 151.463L55.7428 82.2478L54.9447 76.8362C54.773 75.7497 54.354 74.719 53.7212 73.8264C53.0884 72.9338 52.2592 72.204 51.2998 71.6951L45.2872 69.2869C45.0009 69.1306 44.681 69.0488 44.3561 69.0488C44.0311 69.0488 43.7112 69.1306 43.4249 69.2869C43.0303 69.633 42.7444 70.0893 42.6025 70.5992C42.4606 71.109 42.4691 71.6501 42.6268 72.1551Z" fill="#4A4A49"/>
<path d="M65.9574 226.036L108.711 200.844L56.3531 157.795L13.4402 183.04L65.9574 226.036Z" fill="#4A4A49"/>
<path d="M1.33545 94.1805L43.4503 69.3682L66.4631 161.447L24.1089 186.314L1.33545 94.1805Z" fill="#4A4A49"/>
<path d="M16.4209 198.463L63.0585 225.846C65.2135 227.118 66.9427 226.089 66.9427 223.573C66.7967 220.37 65.9055 217.248 64.3422 214.463C62.779 211.678 60.5884 209.311 57.9504 207.555L16.4209 183.202C14.2659 181.93 12.51 182.959 12.51 185.475V191.617C12.5882 192.99 12.9829 194.326 13.6623 195.515C14.3417 196.704 15.2867 197.714 16.4209 198.463Z" fill="#1D1D1B"/>
<path d="M24.7741 183.581L12.403 101.865C12.2313 100.779 11.8124 99.7481 11.1796 98.8555C10.5467 97.9629 9.71758 97.233 8.75823 96.7242L2.71903 94.316C0.93653 93.5854 -0.287274 94.8842 0.0585837 97.1842L12.004 177.52C12.1718 178.517 12.5394 179.469 13.084 180.316C13.6286 181.163 14.3386 181.888 15.1699 182.444L21.6348 186.232C23.6567 187.423 25.1732 186.151 24.7741 183.581Z" fill="#1D1D1B"/>
<path d="M114.166 260.615C111.505 263.321 111.239 268.273 112.09 273.252C112.698 274.524 113.565 275.651 114.634 276.556C115.702 277.461 116.949 278.124 118.289 278.501C120.958 279.484 123.539 280.697 126.005 282.127C133.427 289.974 140.291 290.921 142.845 289.974C151.385 286.754 142.207 279.15 139.732 277.446C139.014 276.932 129.49 267.705 129.49 267.705L127.228 264.052L127.494 256.124L115.097 252.39L114.166 260.615Z" fill="black"/>
<path d="M139.733 202.981C138.083 222.68 132.017 237.534 127.228 263.997C125.766 265.142 124.073 265.945 122.27 266.347C120.467 266.749 118.599 266.742 116.799 266.324C115.767 265.976 114.845 265.354 114.13 264.521C113.414 263.688 112.93 262.676 112.729 261.589C111.984 238.996 112.17 221.516 118.316 206.905C99.6928 198.571 75.0039 196.081 59.7861 182.985C53.8799 177.844 49.4104 173.217 47.9471 168.347C47.1924 166.047 47.3255 163.542 48.3196 161.339C48.9066 159.981 49.7063 158.729 50.6874 157.632L55.5294 154.114L76.4671 151.057C79.1276 152.491 82.0807 154.141 85.22 155.981C107.914 169.077 139.839 190.859 139.733 202.981Z" fill="#4A4A49"/>
<g style="mix-blend-mode:multiply" opacity="0.5">
<path d="M118.29 265.864L116.8 266.378C115.768 266.03 114.846 265.408 114.13 264.575C113.414 263.743 112.931 262.73 112.729 261.643C111.984 239.05 112.171 221.57 118.316 206.959C99.6932 198.625 75.0042 196.135 59.7865 183.039C53.8803 177.844 49.4108 173.217 47.9475 168.347L48.32 161.339C48.907 159.981 49.7067 158.729 50.6878 157.632L55.5298 154.114L76.4675 151.057C79.1279 152.491 82.081 154.141 85.2203 155.981C86.8166 176.004 105.998 190.129 127.229 203.522C119.327 222.22 117.119 243.298 118.29 265.864Z" fill="#3C3C3B"/>
</g>
<path d="M80.3245 280.016C77.664 282.721 77.664 287.375 78.2227 292.652C80.1568 295.373 82.9904 297.294 86.2041 298.063C86.2041 298.063 98.0697 309.536 109.35 307.831C120.63 306.127 109.35 297.874 109.35 297.874L96.3404 286.401L93.8395 282.857V275.416L81.4419 271.682L80.3245 280.016Z" fill="black"/>
<path d="M111.238 217.592C109.615 237.291 98.5476 256.502 93.7588 282.992C89.3691 286.374 85.538 286.969 82.4519 283.425C81.4897 282.253 80.6927 280.951 80.0841 279.555C79.3392 256.989 80.8556 237.074 86.9747 222.463C69.4237 215.132 53.0494 205.172 38.395 192.915C33.8386 188.777 31.0357 183.004 30.5743 176.809C30.113 170.613 32.0292 164.477 35.9207 159.688L37.9959 159.363H38.395L72.6083 166.588L78.2484 173.217C80.9088 176.112 83.3565 179.035 85.8307 181.93C98.4944 196.243 109.588 209.881 111.238 217.592Z" fill="#4A4A49"/>
<g style="mix-blend-mode:multiply" opacity="0.5">
<path d="M84.6335 284.156L82.4519 283.344C81.4897 282.172 80.6927 280.87 80.0841 279.474C79.3392 256.908 80.8556 236.993 86.9747 222.382C69.4286 215.076 53.0545 205.144 38.395 192.915C33.8386 188.777 31.0357 183.004 30.5743 176.809C30.113 170.613 32.0292 164.477 35.9207 159.688L37.9959 159.363L78.2484 173.217C80.9088 176.112 83.3565 179.035 85.8307 181.93C81.4675 182.606 71.8367 182.823 51.8302 182.606C58.9602 197.894 75.7742 210.909 96.1266 219.892C86.7086 236.154 84.3674 258.991 84.6335 284.156Z" fill="#3C3C3B"/>
</g>
<path d="M88.4127 357.755L30.894 323.986C28.3642 322.331 26.2598 320.085 24.7558 317.435C23.2519 314.785 22.392 311.808 22.2476 308.752V225.467C22.2476 221.03 24.6952 218.026 28.3134 218.026C29.8567 218.073 31.3611 218.53 32.6765 219.352L90.1952 253.121C92.725 254.776 94.8294 257.022 96.3334 259.672C97.8373 262.322 98.6973 265.299 98.8417 268.355V351.64C98.8417 356.077 96.3941 359.081 92.7759 359.081C91.2325 359.034 89.7282 358.577 88.4127 357.755ZM25.8126 225.467V308.752C25.959 311.171 26.6552 313.522 27.8462 315.621C29.0372 317.719 30.6906 319.509 32.6765 320.847L90.1952 354.508C90.9931 355.023 91.9114 355.312 92.8557 355.347C95.1171 355.347 95.3565 352.641 95.3565 351.531V268.355C95.21 265.936 94.5139 263.585 93.3229 261.486C92.1319 259.387 90.4784 257.598 88.4926 256.26L30.894 222.491C30.0961 221.976 29.1779 221.687 28.2336 221.652C26.052 221.652 25.8126 224.331 25.8126 225.467Z" fill="#575756"/>
<path d="M220.211 280.205L162.665 246.409C160.136 244.756 158.033 242.509 156.534 239.859C155.034 237.208 154.181 234.231 154.046 231.175V147.918C154.046 143.453 156.467 140.477 160.111 140.477C161.644 140.517 163.139 140.965 164.448 141.775L221.967 175.571C224.501 177.216 226.609 179.455 228.113 182.102C229.618 184.748 230.476 187.724 230.613 190.778V274.063C230.613 278.527 228.192 281.504 224.547 281.504C223.015 281.463 221.52 281.015 220.211 280.205ZM157.584 147.918V231.175C157.729 233.595 158.424 235.946 159.615 238.045C160.806 240.144 162.461 241.933 164.448 243.27L221.967 277.066C222.768 277.574 223.684 277.863 224.627 277.905C226.889 277.905 227.288 275.199 227.288 274.063V190.778C227.115 188.333 226.386 185.963 225.158 183.854C223.93 181.746 222.236 179.957 220.211 178.629L162.692 144.914C161.891 144.406 160.975 144.117 160.032 144.075C157.85 144.075 157.584 146.754 157.584 147.918Z" fill="#575756"/>
<path d="M17.3523 221.625L94.2392 266.758L232.396 185.557V181.552L155.509 140.396L17.3523 217.62V221.625Z" fill="#575756"/>
<path d="M17.3523 217.619L94.2392 262.78L232.396 181.551L155.509 136.391L17.3523 217.619Z" fill="#B2B2B2"/>
<g style="mix-blend-mode:multiply" opacity="0.5">
<path d="M109.989 194.81L94.8242 185.773L77.5579 182.337L87.6676 174.625L100.438 179.495L109.989 194.81Z" fill="#B2B2B2"/>
</g>
<g style="mix-blend-mode:multiply" opacity="0.5">
<path d="M135.476 177.195L132.576 174.246L133.667 172.352L126.59 167.644L124.861 164.261L113.926 160.852L124.861 154.412L133.986 160.203L139.28 164.829L139.733 171.107L140.212 174.192L135.476 177.195Z" fill="#B2B2B2"/>
</g>
<path d="M60.3704 219.947L50.6065 225.684C50.4742 225.75 50.3285 225.785 50.1808 225.785C50.0332 225.785 49.8875 225.75 49.7552 225.684L31.132 214.86C31.0836 214.839 31.0412 214.805 31.0087 214.763C30.9762 214.72 30.9546 214.67 30.9458 214.617C30.9458 214.617 30.9458 214.427 31.132 214.346L40.8693 208.393C41.0016 208.327 41.1473 208.292 41.2949 208.292C41.4426 208.292 41.5883 208.327 41.7206 208.393L60.3438 219.217C60.6098 219.596 60.6098 219.812 60.3704 219.947Z" fill="#4A4A49"/>
<path d="M30.9458 213.48V214.482L60.5299 219.731V218.73L30.9458 213.48Z" fill="#4A4A49"/>
<path d="M60.3704 218.974L50.6065 224.629C50.4742 224.695 50.3285 224.73 50.1808 224.73C50.0332 224.73 49.8875 224.695 49.7552 224.629L31.132 213.805C31.132 213.805 30.9458 213.643 30.9458 213.535C30.9458 213.427 30.9458 213.372 31.132 213.291L40.8693 207.582C41.0016 207.515 41.1473 207.48 41.2949 207.48C41.4426 207.48 41.5883 207.515 41.7206 207.582L60.3438 218.405C60.3804 218.404 60.4171 218.409 60.4517 218.422C60.4862 218.434 60.518 218.454 60.5452 218.479C60.5723 218.504 60.5944 218.534 60.61 218.568C60.6257 218.602 60.6347 218.639 60.6364 218.676C60.6381 218.713 60.6326 218.75 60.6202 218.786C60.6078 218.821 60.5887 218.853 60.564 218.881C60.5393 218.908 60.5095 218.931 60.4762 218.947C60.443 218.963 60.407 218.972 60.3704 218.974Z" fill="#878787"/>
<path d="M49.5961 223.952L32.8086 214.102L37.1451 211.559L38.5552 210.72L40.7634 209.421L41.5615 208.961L42.333 208.501L59.1205 218.35L49.5961 223.952Z" fill="#3F76AB"/>
<path d="M38.4759 210.423L36.0815 211.83C36.0333 211.871 35.972 211.895 35.9086 211.895C35.8452 211.895 35.7839 211.871 35.7357 211.83L35.0972 211.478V211.261L37.5181 209.855C37.5721 209.828 37.6312 209.814 37.6911 209.814C37.7509 209.814 37.81 209.828 37.864 209.855L38.4759 210.233C38.4759 210.233 38.5823 210.369 38.4759 210.423Z" fill="white"/>
<path d="M36.0023 211.776H35.816L35.2041 211.424L37.5986 209.909C37.628 209.896 37.6597 209.89 37.6917 209.89C37.7237 209.89 37.7553 209.896 37.7848 209.909L38.3967 210.261L36.0023 211.776Z" fill="#4A4A49"/>
<path d="M54.5972 221.923C54.5972 221.923 54.5972 221.923 54.4376 221.923L53.8789 221.57C53.8789 221.57 53.8789 221.57 54.0119 221.57L54.5972 221.923Z" fill="#273340"/>
<path d="M54.9172 221.762C54.9172 221.762 54.9172 221.762 54.7576 221.762L54.1724 221.436C54.1724 221.436 54.1724 221.436 54.332 221.436L54.9172 221.762Z" fill="#273340"/>
<path d="M55.2106 221.57H55.0775L54.4922 221.219C54.4922 221.219 54.4922 221.219 54.6518 221.219L55.2106 221.57Z" fill="#273340"/>
<path d="M55.5281 221.408C55.5281 221.408 55.5281 221.408 55.3685 221.408L54.8098 221.057C54.8098 221.057 54.8098 221.057 54.9428 221.057L55.5281 221.408Z" fill="#273340"/>
<path d="M55.9281 221.22C55.9281 221.22 55.9281 221.22 55.7685 221.22L55.1831 220.867C55.1831 220.867 55.1831 220.867 55.3428 220.867L55.9281 221.22Z" fill="#273340"/>
<path opacity="0.5" d="M54.5972 221.923C54.5972 221.923 54.5972 221.923 54.4376 221.923L53.8789 221.57C53.8789 221.57 53.8789 221.57 54.0119 221.57L54.5972 221.923Z" fill="black"/>
<path opacity="0.5" d="M54.9172 221.762C54.9172 221.762 54.9172 221.762 54.7576 221.762L54.1724 221.436C54.1724 221.436 54.1724 221.436 54.332 221.436L54.9172 221.762Z" fill="black"/>
<path opacity="0.5" d="M55.2106 221.57H55.0775L54.4922 221.219C54.4922 221.219 54.4922 221.219 54.6518 221.219L55.2106 221.57Z" fill="black"/>
<path opacity="0.5" d="M55.5281 221.408C55.5281 221.408 55.5281 221.408 55.3685 221.408L54.8098 221.057C54.8098 221.057 54.8098 221.057 54.9428 221.057L55.5281 221.408Z" fill="black"/>
<path opacity="0.5" d="M55.9281 221.22C55.9281 221.22 55.9281 221.22 55.7685 221.22L55.1831 220.867C55.1831 220.867 55.1831 220.867 55.3428 220.867L55.9281 221.22Z" fill="black"/>
<path opacity="0.5" d="M52.9218 222.572C52.9218 222.572 52.9218 222.763 52.9218 222.817C52.8632 222.844 52.7997 222.858 52.7355 222.858C52.6713 222.858 52.6078 222.844 52.5493 222.817C52.5493 222.817 52.5493 222.654 52.5493 222.572C52.6078 222.545 52.6713 222.531 52.7355 222.531C52.7997 222.531 52.8632 222.545 52.9218 222.572Z" fill="black"/>
<path d="M87.0823 83.9258C96.8195 82.4376 100.012 87.0646 102.194 97.8608L111.159 130.331C114.485 133.199 116.48 137.366 119.779 141.478L109.749 149.866C105.173 146.159 100.651 142.101 96.1012 137.744L90.7803 119.128L84.1824 95.9396L80.4578 88.8775L87.0823 83.9258Z" fill="#55B2E6"/>
<g style="mix-blend-mode:multiply" opacity="0.5">
<path d="M90.832 119.102L98.8134 103.462C100.596 116.396 105.917 125.65 106.475 137.339L113.978 146.484L109.801 149.812C105.172 146.16 100.649 142.101 96.0997 137.745L90.832 119.102Z" fill="#3F76AB"/>
</g>
<path d="M65.1589 69.4219C45.7377 75.8346 49.888 94.4505 55.1291 109.062L68.8303 95.9657L65.1589 69.4219Z" fill="#1D1D1B"/>
<path d="M102.193 131.494C102.206 131.611 102.206 131.729 102.193 131.846C101.74 143.183 86.5226 142.128 86.5226 142.128L80.377 155.657C78.8073 175.41 45.2857 180.388 35.9209 159.689C42.6784 149.948 42.6784 149.948 43.2637 143.237C42.7316 141.452 42.2528 139.72 41.8803 138.042C38.7977 126.422 40.2265 114.041 45.871 103.462C51.3781 96.2372 63.7226 88.9856 71.4911 86.0363L94.2113 85.4951L98.734 102.271C97.5368 123.35 102.326 122.619 102.193 131.494Z" fill="#55B2E6"/>
<path d="M67.7145 82.1406C66.4907 86.4429 63.1651 93.1262 62.3936 97.2391C61.4625 102.299 70.6676 110.173 76.8132 109.713C81.1764 108.847 82.2671 103.165 82.9323 97.9426L67.7145 82.1406Z" fill="#FCAF75"/>
<g style="mix-blend-mode:multiply" opacity="0.3">
<path d="M70.8802 85.4414C70.8802 85.4414 67.262 115.746 81.522 113.257C90.8868 111.606 88.9181 95.9399 88.9181 95.9399L70.8802 85.4414Z" fill="#FCAF75"/>
</g>
<path d="M79.8709 57.6789C94.2107 59.6812 98.6537 68.2587 97.217 79.8667C97.0574 89.6077 89.076 102.514 83.5157 102.271C75.5343 102.731 71.6767 93.3146 64.8925 83.3301C59.7047 66.6352 66.5686 55.7848 79.8709 57.6789Z" fill="#FCAF75"/>
<path d="M97.0842 80.1909C94.0779 83.4378 89.3157 85.2778 83.3563 86.6848C78.3015 88.7953 73.4329 88.5789 71.4908 91.447L65.6644 88.9847C59.8114 82.1391 59.2261 62.522 69.256 58.3821C85.4049 51.7258 104.56 68.2042 97.0842 80.1909Z" fill="#1D1D1B"/>
<path d="M71.2786 88.4446C70.4007 84.873 67.9531 82.5189 65.9578 84.5753C65 85.5494 65.0532 87.2811 65.9578 89.554C66.1926 90.251 66.6083 90.8704 67.1609 91.3468C67.7136 91.8231 68.3826 92.1386 69.0971 92.2598C70.9594 92.6116 71.8905 91.2045 71.2786 88.4446Z" fill="#FCAF75"/>
<g style="mix-blend-mode:multiply" opacity="0.5">
<path d="M102.166 131.846C101.714 143.183 86.496 142.128 86.496 142.128L80.3504 155.657C78.8073 175.409 45.2857 180.388 35.9209 159.688C42.6784 149.947 42.6784 149.947 43.2637 143.237C42.7316 141.451 42.2528 139.719 41.8803 138.042L55.3954 123.322L63.1905 141.153C69.4957 155.007 84.474 149.081 85.5648 137.907C87.8528 141.478 99.0533 140.748 102.166 131.846Z" fill="#3F76AB"/>
</g>
<g style="mix-blend-mode:multiply" opacity="0.5">
<path d="M116.958 193.457L118.794 194.269C120.364 194.702 121.109 193.944 120.045 192.348C120.124 193.863 118.901 193.998 116.958 193.457Z" fill="#FCAF75"/>
</g>
<path d="M199.086 45.6919L197.463 50.9683L194.483 49.8589V43.906L197.463 41.8496L199.086 45.6919Z" fill="black"/>
<path d="M197.463 50.9688C196.638 65.5321 196.638 80.1316 197.463 94.6949L192.621 99.376L189.269 91.6914C190.149 77.6449 191.926 63.6714 194.59 49.8594L197.463 50.9688Z" fill="black"/>
<path d="M205.738 20.2031C206.057 20.2031 211.803 27.4007 211.803 27.4007C219.439 31.8112 209.622 48.1816 199.193 46.4769L190.546 40.3887L205.738 20.2031Z" fill="#FCAF75"/>
<path d="M210.047 25.209C212.166 26.6514 214.175 28.2522 216.06 29.9983C216.06 29.9983 211.91 49.8589 199.086 50.9683C198.52 48.8295 197.744 46.7538 196.772 44.772C204.726 43.5544 210.047 31.297 210.047 25.209Z" fill="#DADADA"/>
<path d="M196.772 44.7724L192.09 49.3452C192.09 49.3452 187.594 30.6752 191.531 26.6977C195.469 22.7202 196.772 44.7724 196.772 44.7724Z" fill="#DADADA"/>
<path d="M192.994 0.504883C202.359 0.504883 207.706 5.07773 208.052 15.0081C207.786 25.4526 207.281 31.7301 202.332 38.8735C200.978 40.857 199.178 42.4834 197.082 43.6175C194.986 44.7517 192.654 45.3609 190.28 45.3945C184.587 45.0969 176.18 31.2431 175.355 21.2044C173.972 11.0576 182.485 3.29188 192.994 0.504883Z" fill="#FCAF75"/>
<path d="M176.526 28.5105C178.654 33.5974 191.052 32.6774 196.506 26.4541L197.117 30.1881L202.252 25.94L206.615 31.7033L208.185 29.4305C212.149 21.313 211.963 8.00037 200.656 1.28994C185.385 -4.87932 166.655 13.0332 176.526 28.5105Z" fill="black"/>
<path d="M203.502 30.2966C204.131 29.3316 204.557 28.2445 204.753 27.1039C204.831 26.5178 204.773 25.9214 204.583 25.3622C204.394 24.8031 204.078 24.2969 203.662 23.884C203.213 23.4895 202.646 23.2592 202.053 23.2298C201.46 23.2004 200.875 23.3735 200.39 23.7217C200.08 23.9902 199.835 24.3274 199.674 24.7074C199.512 25.0873 199.439 25.4999 199.459 25.9133C199.489 26.7347 199.641 27.5467 199.911 28.3214C200.097 29.0249 200.31 29.7284 200.523 30.4319C200.553 30.688 200.638 30.9343 200.771 31.1538C200.905 31.3733 201.083 31.5609 201.294 31.7036C201.511 31.8009 201.751 31.8346 201.986 31.8012C202.221 31.7677 202.442 31.6684 202.624 31.5142C203.007 31.1842 203.308 30.767 203.502 30.2966Z" fill="#FCAF75"/>
<path d="M158.514 140.992L133.506 155.685L169.129 176.601L194.111 161.908L158.514 140.992Z" fill="white"/>
<path d="M186.768 161.799L168.704 172.406L169.795 173.055L187.859 162.448L186.768 161.799Z" fill="#1D1D1B"/>
<path d="M183.815 160.067L165.751 170.674L166.416 171.053L184.48 160.446L183.815 160.067Z" fill="#1D1D1B"/>
<path d="M182.033 159.012L163.968 169.618L164.633 170.024L182.698 159.418L182.033 159.012Z" fill="#1D1D1B"/>
<path d="M180.25 157.957L162.186 168.564L162.851 168.97L180.916 158.363L180.25 157.957Z" fill="#1D1D1B"/>
<path d="M176.686 155.873L158.595 166.48L159.26 166.859L177.325 156.252L176.686 155.873Z" fill="#1D1D1B"/>
<path d="M174.877 154.818L156.812 165.425L157.478 165.831L175.542 155.224L174.877 154.818Z" fill="#1D1D1B"/>
<path d="M161.948 160.311L155.031 164.369L155.696 164.775L162.613 160.716L161.948 160.311Z" fill="#1D1D1B"/>
<path d="M171.31 152.734L153.246 163.341L153.911 163.72L171.976 153.113L171.31 152.734Z" fill="#1D1D1B"/>
<path d="M169.528 151.68L151.464 162.286L152.129 162.665L170.193 152.058L169.528 151.68Z" fill="#1D1D1B"/>
<path d="M163.516 153.113L149.681 161.231L150.346 161.637L164.181 153.492L163.516 153.113Z" fill="#1D1D1B"/>
<path d="M152.369 153.356L144.334 158.092L144.973 158.47L153.034 153.735L152.369 153.356Z" fill="#1D1D1B"/>
<path d="M150.588 152.302L142.526 157.037L143.191 157.415L151.253 152.708L150.588 152.302Z" fill="#1D1D1B"/>
<path d="M149.31 145.212C148.805 146.808 150.64 148.053 151.518 146.754L151.971 146.375C151.705 147.485 153.54 148.892 154.418 147.539L155.482 145.942C155.935 147.295 156.547 147.891 157.691 146.673L160.537 140.747L164.395 136.093L165.007 138.799L164.156 141.803C163.703 143.724 165.512 144.806 166.284 142.993L167.162 140.828L167.694 139.611L167.987 136.283C167.409 133.949 166.513 131.708 165.326 129.626L166.603 127.922L161.149 125.676L159.074 127.624C155.967 129.357 153.375 131.908 151.572 135.011L149.044 141.64C148.219 143.453 148.486 144.968 149.709 144.157L149.31 145.212Z" fill="#FCAF75"/>
<path d="M176.154 103.461C173.585 113.14 170.331 122.617 166.417 131.818L164.422 130.249C163.689 129.482 162.806 128.881 161.83 128.484C160.853 128.088 159.805 127.906 158.755 127.949C158.516 118.695 160.511 107.547 162.267 96.2637L176.154 103.461Z" fill="#EDEDED"/>
<g style="mix-blend-mode:multiply" opacity="0.15">
<path d="M176.153 103.461C173.584 113.14 170.33 122.617 166.416 131.818L164.42 130.249C168.035 121.039 170.943 111.558 173.12 101.892L176.153 103.461Z" fill="#3C3C3B"/>
</g>
<path d="M141.407 171.946L116.426 186.612L152.049 207.528L177.031 192.862L141.407 171.946Z" fill="white"/>
<path d="M169.689 192.754L151.624 203.361L152.688 203.983L170.753 193.376L169.689 192.754Z" fill="#1D1D1B"/>
<path d="M166.735 190.995L148.671 201.602L149.336 202.008L167.4 191.401L166.735 190.995Z" fill="#1D1D1B"/>
<path d="M164.926 189.967L146.888 200.574L147.553 200.952L165.591 190.346L164.926 189.967Z" fill="#1D1D1B"/>
<path d="M163.144 188.911L145.08 199.518L145.745 199.897L163.81 189.29L163.144 188.911Z" fill="#1D1D1B"/>
<path d="M159.58 186.801L141.515 197.408L142.18 197.813L160.245 187.207L159.58 186.801Z" fill="#1D1D1B"/>
<path d="M157.797 185.772L139.733 196.379L140.398 196.758L158.462 186.151L157.797 185.772Z" fill="#1D1D1B"/>
<path d="M144.866 191.266L137.949 195.325L138.614 195.703L145.531 191.644L144.866 191.266Z" fill="#1D1D1B"/>
<path d="M154.23 183.662L136.166 194.269L136.831 194.648L154.896 184.041L154.23 183.662Z" fill="#1D1D1B"/>
<path d="M152.422 182.606L134.384 193.213L135.022 193.619L153.087 183.012L152.422 182.606Z" fill="#1D1D1B"/>
<path d="M146.41 184.041L132.575 192.158L133.24 192.564L147.075 184.447L146.41 184.041Z" fill="#1D1D1B"/>
<path d="M135.289 184.285L127.228 189.02L127.893 189.426L135.955 184.691L135.289 184.285Z" fill="#1D1D1B"/>
<path d="M133.507 183.256L125.446 187.964L126.111 188.37L134.172 183.635L133.507 183.256Z" fill="#1D1D1B"/>
<path d="M136.858 177.791C137.942 177.23 139.14 176.938 140.356 176.938C141.572 176.938 142.771 177.23 143.855 177.791C144.281 177.933 144.651 178.208 144.914 178.578C145.177 178.947 145.319 179.391 145.319 179.847C145.319 180.303 145.177 180.747 144.914 181.116C144.651 181.486 144.281 181.761 143.855 181.903C142.771 182.464 141.572 182.756 140.356 182.756C139.14 182.756 137.942 182.464 136.858 181.903C136.432 181.761 136.061 181.486 135.798 181.116C135.536 180.747 135.394 180.303 135.394 179.847C135.394 179.391 135.536 178.947 135.798 178.578C136.061 178.208 136.432 177.933 136.858 177.791ZM137.097 177.791C136.703 177.927 136.36 178.186 136.118 178.53C135.875 178.875 135.745 179.288 135.745 179.712C135.745 180.135 135.875 180.548 136.118 180.893C136.36 181.238 136.703 181.496 137.097 181.633C138.112 182.154 139.233 182.425 140.37 182.425C141.506 182.425 142.627 182.154 143.642 181.633C144.036 181.496 144.379 181.238 144.621 180.893C144.864 180.548 144.994 180.135 144.994 179.712C144.994 179.288 144.864 178.875 144.621 178.53C144.379 178.186 144.036 177.927 143.642 177.791C142.617 177.291 141.491 177.042 140.354 177.066C139.217 177.089 138.102 177.384 137.097 177.926V177.791Z" fill="#1D71B8"/>
<path d="M137.365 178.088C138.292 177.608 139.317 177.357 140.358 177.357C141.398 177.357 142.424 177.608 143.351 178.088C143.708 178.217 144.016 178.455 144.235 178.77C144.453 179.085 144.57 179.461 144.57 179.846C144.57 180.232 144.453 180.608 144.235 180.923C144.016 181.238 143.708 181.476 143.351 181.605C142.424 182.085 141.398 182.335 140.358 182.335C139.317 182.335 138.292 182.085 137.365 181.605C137.008 181.476 136.699 181.238 136.481 180.923C136.262 180.608 136.145 180.232 136.145 179.846C136.145 179.461 136.262 179.085 136.481 178.77C136.699 178.455 137.008 178.217 137.365 178.088ZM137.524 178.088C137.183 178.206 136.887 178.431 136.677 178.729C136.468 179.027 136.355 179.385 136.355 179.752C136.355 180.119 136.468 180.476 136.677 180.774C136.887 181.073 137.183 181.297 137.524 181.416C138.402 181.87 139.373 182.106 140.358 182.106C141.342 182.106 142.313 181.87 143.191 181.416C143.532 181.297 143.828 181.073 144.038 180.774C144.248 180.476 144.361 180.119 144.361 179.752C144.361 179.385 144.248 179.027 144.038 178.729C143.828 178.431 143.532 178.206 143.191 178.088C142.303 177.661 141.331 177.446 140.348 177.46C139.366 177.474 138.4 177.716 137.524 178.169V178.088Z" fill="#1D71B8"/>
<path d="M138.588 178.792C139.142 178.511 139.752 178.364 140.371 178.364C140.989 178.364 141.6 178.511 142.153 178.792C142.372 178.864 142.563 179.005 142.699 179.195C142.834 179.384 142.907 179.613 142.907 179.847C142.907 180.081 142.834 180.31 142.699 180.499C142.563 180.689 142.372 180.83 142.153 180.902C141.6 181.184 140.989 181.33 140.371 181.33C139.752 181.33 139.142 181.184 138.588 180.902C138.369 180.83 138.178 180.689 138.042 180.499C137.907 180.31 137.834 180.081 137.834 179.847C137.834 179.613 137.907 179.384 138.042 179.195C138.178 179.005 138.369 178.864 138.588 178.792ZM138.748 178.792C138.554 178.859 138.385 178.987 138.266 179.157C138.147 179.327 138.083 179.53 138.083 179.739C138.083 179.947 138.147 180.151 138.266 180.321C138.385 180.491 138.554 180.618 138.748 180.686C139.249 180.952 139.806 181.09 140.371 181.09C140.936 181.09 141.492 180.952 141.994 180.686C142.188 180.618 142.356 180.491 142.475 180.321C142.595 180.151 142.659 179.947 142.659 179.739C142.659 179.53 142.595 179.327 142.475 179.157C142.356 178.987 142.188 178.859 141.994 178.792C141.484 178.543 140.923 178.422 140.358 178.441C139.793 178.46 139.24 178.617 138.748 178.9V178.792Z" fill="#1D71B8"/>
<path d="M141.674 178.359L142.1 177.953L141.807 178.278L142.419 178.061L142.1 178.494L142.366 178.143L141.754 178.359H141.674Z" fill="#1D71B8"/>
<path d="M141.222 178.25C141.176 178.138 141.176 178.011 141.222 177.898C141.674 177.898 141.541 178.196 141.541 178.196C141.541 178.196 141.248 178.25 141.222 178.25ZM141.222 178.25C141.286 178.291 141.359 178.313 141.435 178.313C141.51 178.313 141.584 178.291 141.648 178.25C141.605 178.186 141.543 178.138 141.471 178.114C141.398 178.089 141.32 178.09 141.248 178.115L141.222 178.25Z" fill="#1D71B8"/>
<path d="M141.062 177.736H140.85V178.169V177.736H140.663H141.062Z" fill="#1D71B8"/>
<path d="M140.529 178.169H140.157V177.79L140.503 178.25L140.529 178.169ZM140.529 178.007L140.37 177.736L140.237 178.034L140.529 178.007Z" fill="#1D71B8"/>
<path d="M139.971 178.169L139.812 177.98H139.652V178.223V178.007L139.838 177.709C139.893 177.859 139.937 178.013 139.971 178.169ZM139.572 177.763C139.576 177.788 139.584 177.812 139.596 177.834C139.609 177.856 139.625 177.875 139.645 177.89C139.665 177.905 139.688 177.916 139.712 177.922C139.736 177.928 139.761 177.929 139.785 177.925V177.736L139.572 177.763Z" fill="#1D71B8"/>
<path d="M139.227 178.304L139.041 178.142L138.642 177.953C138.781 177.99 138.915 178.045 139.041 178.115V177.817V178.142L139.227 178.304Z" fill="#1D71B8"/>
<path d="M138.694 178.467H138.455H138.321C138.002 178.224 138.162 178.169 138.162 178.169L138.694 178.467ZM138.029 178.224C138.268 178.386 138.401 178.224 138.401 178.224L138.162 178.034L138.029 178.224Z" fill="#1D71B8"/>
<path d="M137.843 178.792H137.976C137.976 178.602 137.604 178.412 137.604 178.412L138.109 178.575C137.988 178.631 137.857 178.66 137.724 178.66C137.591 178.66 137.459 178.631 137.338 178.575L137.843 178.792Z" fill="#1D71B8"/>
<path d="M137.896 178.981C137.901 179.026 137.901 179.072 137.896 179.117C137.178 178.764 137.896 178.981 137.896 178.981ZM137.896 178.981H137.577C137.577 179.226 137.71 179.226 137.737 179.226L137.896 178.981Z" fill="#1D71B8"/>
<path d="M137.578 179.523V179.305H136.859C137.125 179.277 137.392 179.277 137.658 179.305C137.634 179.379 137.608 179.452 137.578 179.523Z" fill="#1D71B8"/>
<path d="M137.523 179.576H136.725C136.99 179.549 137.257 179.549 137.523 179.576Z" fill="#1D71B8"/>
<path d="M136.912 179.93C136.912 179.685 137.285 179.685 137.285 179.685H136.779C136.886 179.93 136.886 179.93 136.912 179.93Z" fill="#1D71B8"/>
<path d="M138.907 181.334L138.454 181.74L138.747 181.416L138.162 181.605L138.508 181.199L138.188 181.524L138.827 181.334H138.907Z" fill="#1D71B8"/>
<path d="M139.306 181.335C139.354 181.457 139.354 181.592 139.306 181.714C138.881 181.714 139.014 181.389 139.014 181.389L139.306 181.335ZM139.306 181.497C139.246 181.449 139.171 181.423 139.094 181.423C139.017 181.423 138.942 181.449 138.881 181.497C138.941 181.544 139.012 181.573 139.086 181.583C139.161 181.592 139.237 181.582 139.306 181.551V181.497Z" fill="#1D71B8"/>
<path d="M139.359 181.958H139.572V181.524V181.958H139.758H139.359Z" fill="#1D71B8"/>
<path d="M139.998 181.497H140.37V181.876L140.025 181.389L139.998 181.497ZM139.998 181.659V181.957V181.686V181.659Z" fill="#1D71B8"/>
<path d="M140.558 181.525V181.742V181.498V181.742L140.398 182.039L140.558 181.525ZM140.93 181.958C140.93 181.769 140.717 181.796 140.717 181.796V181.985L140.93 181.958Z" fill="#1D71B8"/>
<path d="M141.248 181.335L141.434 181.497L141.833 181.741L141.434 181.551V181.822V181.524L141.248 181.335Z" fill="#1D71B8"/>
<path d="M141.807 181.335L142.046 181.47H142.179C142.498 181.741 142.179 181.795 142.179 181.795L141.807 181.335ZM142.445 181.66C142.232 181.47 142.099 181.66 142.099 181.66L142.312 181.849L142.445 181.66Z" fill="#1D71B8"/>
<path d="M142.659 181.064H142.526C142.526 181.227 142.872 181.497 142.872 181.497L142.393 181.335C142.509 181.276 142.636 181.245 142.766 181.245C142.895 181.245 143.023 181.276 143.138 181.335L142.659 181.064Z" fill="#1D71B8"/>
<path d="M142.633 180.875C142.633 180.875 143.324 181.174 142.633 180.875V180.875ZM142.633 180.875H142.952C142.952 180.631 142.952 180.631 142.819 180.631L142.633 180.875Z" fill="#1D71B8"/>
<path d="M143.058 180.388V180.577L143.776 180.794C143.507 180.747 143.24 180.683 142.978 180.604C142.999 180.53 143.026 180.458 143.058 180.388Z" fill="#1D71B8"/>
<path d="M143.111 180.361C143.376 180.333 143.644 180.333 143.909 180.361C143.643 180.376 143.377 180.376 143.111 180.361Z" fill="#1D71B8"/>
<path d="M143.722 180.091C143.722 180.308 143.27 180.254 143.27 180.254H143.722V180.091Z" fill="#1D71B8"/>
<path d="M138.907 178.981C139.362 178.754 139.863 178.636 140.37 178.636C140.877 178.636 141.378 178.754 141.833 178.981C142.009 179.045 142.16 179.162 142.268 179.317C142.375 179.472 142.432 179.657 142.432 179.847C142.432 180.036 142.375 180.221 142.268 180.376C142.16 180.531 142.009 180.648 141.833 180.712C141.378 180.939 140.877 181.057 140.37 181.057C139.863 181.057 139.362 180.939 138.907 180.712C138.082 180.225 138.082 179.468 138.907 178.981ZM139.067 178.981C138.322 179.387 138.322 180.09 139.067 180.496C139.476 180.719 139.933 180.835 140.397 180.835C140.861 180.835 141.318 180.719 141.727 180.496C141.891 180.451 142.035 180.352 142.139 180.216C142.242 180.079 142.298 179.911 142.298 179.738C142.298 179.566 142.242 179.398 142.139 179.261C142.035 179.124 141.891 179.026 141.727 178.981C141.309 178.775 140.848 178.677 140.383 178.695C139.919 178.714 139.467 178.849 139.067 179.089V178.981Z" fill="#1D71B8"/>
<path d="M143.137 178.927L142.977 178.765C143.11 178.765 143.243 178.765 143.243 178.765H143.483L143.323 178.954H143.642H143.27V179.171C143.137 179.171 143.27 178.954 143.27 178.954H142.924L143.137 178.927Z" fill="#1D71B8"/>
<path d="M137.417 180.686L137.231 180.523H137.524H137.736V180.713H138.056H137.683V180.902V180.686H137.337H137.417Z" fill="#1D71B8"/>
<path d="M116.771 151.571L125.099 157.795L126.296 161.502C127.112 163.488 128.254 165.318 129.675 166.913L130.313 166.751L134.144 165.75V165.317C134.809 164.234 137.23 164.559 139.465 164.776L139.811 165.75C139.442 165.73 139.075 165.822 138.758 166.015C138.44 166.208 138.186 166.492 138.028 166.832L138.481 167.59L140.237 170.701L140.449 171.053L141.647 170.296H142.125C142.561 170.263 142.974 170.082 143.296 169.781L145.797 167.969C146.074 167.733 146.279 167.422 146.387 167.072C146.495 166.722 146.503 166.348 146.409 165.993C146.548 165.839 146.645 165.651 146.692 165.447C146.738 165.243 146.733 165.031 146.675 164.83V164.64C146.848 164.197 146.848 163.703 146.675 163.26L145.797 160.933L145.637 160.257C145.53 159.831 145.291 159.452 144.956 159.174C144.62 158.896 144.207 158.735 143.775 158.715L134.996 156.252C133.639 155.803 132.219 155.584 130.792 155.603L121.88 146.457L116.771 151.571Z" fill="#FCAF75"/>
<g style="mix-blend-mode:multiply" opacity="0.5">
<path d="M134.012 165.696V165.371C134.677 164.289 137.098 164.614 139.333 164.83L139.678 165.804C139.309 165.784 138.943 165.876 138.625 166.069C138.308 166.262 138.054 166.546 137.896 166.886L138.348 167.644L140.822 166.805C140.127 165.676 139.699 164.398 139.572 163.071C137.743 163.892 135.67 163.95 133.799 163.234C133.639 164.058 133.713 164.912 134.012 165.696Z" fill="#FCAF75"/>
</g>
<g style="mix-blend-mode:multiply" opacity="0.5">
<path d="M139.918 168.726V170.755L140.131 171.107L141.328 170.349H141.807C142.243 170.317 142.655 170.136 142.977 169.835L145.478 168.022C145.755 167.787 145.96 167.476 146.068 167.126C146.177 166.776 146.184 166.401 146.09 166.047C146.229 165.893 146.326 165.705 146.373 165.501C146.42 165.297 146.414 165.084 146.356 164.884V164.694C146.529 164.251 146.529 163.757 146.356 163.314L146.09 163.774L145.079 161.285L145.877 164.424L145.558 165.073C144.97 163.596 144.525 162.065 144.228 160.5C144.143 160.217 143.981 159.964 143.759 159.772C143.537 159.58 143.266 159.457 142.977 159.418C143.225 159.541 143.437 159.728 143.591 159.961C143.745 160.194 143.836 160.464 143.855 160.744C144.095 162.392 144.542 164.001 145.185 165.533C145.322 165.861 145.362 166.222 145.3 166.573C145.239 166.923 145.079 167.248 144.84 167.508C144.281 168.104 143.456 168.482 142.924 167.86C143.14 167.624 143.282 167.328 143.329 167.009C143.377 166.69 143.328 166.364 143.19 166.074C142.512 164.814 142.104 163.421 141.993 161.988C141.833 160.663 141.142 160.446 140.237 160.446C140.62 160.501 140.975 160.681 141.249 160.959C141.522 161.238 141.699 161.599 141.753 161.988C141.757 163.454 142.094 164.899 142.738 166.209C142.881 166.489 142.916 166.813 142.838 167.118C142.759 167.423 142.572 167.688 142.312 167.86C141.646 168.438 140.793 168.746 139.918 168.726Z" fill="#FCAF75"/>
</g>
<path d="M135.449 177.142C135.662 178.089 137.843 178.44 140.371 177.926C142.898 177.412 144.76 176.194 144.548 175.22C144.335 174.246 142.153 173.921 139.652 174.435C137.151 174.95 135.262 176.167 135.449 177.142Z" fill="#1D1D1B"/>
<path d="M135.129 175.599L144.228 173.678L144.547 175.22L135.475 177.195L135.129 175.599Z" fill="#1D1D1B"/>
<path d="M135.129 175.598C135.315 176.545 137.523 176.897 140.024 176.383C142.525 175.869 144.414 174.651 144.228 173.677C144.041 172.703 141.833 172.378 139.332 172.892C136.832 173.407 134.943 174.624 135.129 175.598Z" fill="#292928"/>
<path d="M135.289 175.247C135.501 176.194 137.603 176.573 140.024 176.059C142.445 175.545 144.254 174.354 144.068 173.353C143.882 172.352 141.753 172.027 139.332 172.514C136.911 173.001 135.102 174.273 135.289 175.247Z" fill="#3C3C3B"/>
<path d="M136.779 174.868C136.938 175.518 138.322 175.761 139.891 175.41C141.461 175.058 142.552 174.273 142.552 173.624C142.552 172.974 141.009 172.704 139.466 173.056C137.923 173.407 136.646 174.219 136.779 174.868Z" fill="#1D1D1B"/>
<path d="M137.205 169.943L139.998 169.186C140.292 170.76 141.109 172.183 142.313 173.217L136.992 174.3C137.565 172.918 137.641 171.375 137.205 169.943Z" fill="#1D1D1B"/>
<path d="M135.741 168.916C135.9 169.809 136.991 170.323 138.667 169.971C140.343 169.62 141.142 168.835 140.982 167.807C140.822 166.778 139.465 166.454 138.029 166.751C136.592 167.049 135.555 168.023 135.741 168.916Z" fill="#3C3C3B"/>
<path d="M136.115 168.131C136.115 168.563 137.232 168.699 138.403 168.455C139.573 168.212 140.451 167.616 140.345 167.184C140.239 166.751 139.228 166.588 138.057 166.859C136.886 167.129 136.009 167.806 136.115 168.131Z" fill="#525250"/>
<path d="M129.57 166.967L131.246 168.374C132.242 169.226 133.291 170.012 134.385 170.728C135.768 171.675 137.232 173.434 138.056 172.649C139.599 171.432 135.529 168.32 135.529 168.32C134.852 167.606 134.343 166.746 134.039 165.804C132.664 165.533 131.24 165.825 130.075 166.615L129.57 166.967Z" fill="#FCAF75"/>
<path d="M131.245 155.468C128.159 155.468 127.441 158.174 126.19 161.502C125.818 161.285 126.19 161.258 125.871 161.015C124.541 161.015 110.813 150.651 109.749 149.812C112.09 145.077 115.07 141.37 119.779 141.424C123.37 146.484 126.35 149.109 131.245 155.468Z" fill="#55B2E6"/>
<g style="mix-blend-mode:multiply" opacity="0.5">
<path d="M125.871 161.015C120.225 157.703 114.835 153.958 109.749 149.813C110.527 148.088 111.529 146.477 112.728 145.023L125.871 161.015Z" fill="#3F76AB"/>
</g>
<path d="M90.8059 179.305L96.3396 182.282C96.4344 182.614 96.5499 182.939 96.6855 183.256C98.0957 186.202 100.349 188.645 103.15 190.264L109.988 194.864C112.036 195.486 112.169 194.593 111.557 193.105L114.377 195.08C116.293 196.271 117.836 195.08 117.038 193.511L118.874 194.323C120.443 194.756 121.188 193.998 120.124 192.402C119.991 192.182 119.839 191.973 119.672 191.779L118.554 190.697C120.151 191.509 121.774 190.697 119.698 188.559C116.386 184.742 112.725 181.254 108.764 178.142C105.992 176.768 102.982 175.959 99.9046 175.761L93.9186 173.731L90.8059 179.305Z" fill="#FCAF75"/>
<path d="M45.8983 103.488C39.3004 109.062 37.5445 114.636 38.7417 126.461C40.1507 142.086 44.8024 157.229 52.3898 170.89C63.7765 177.249 79.6328 180.712 96.6863 183.256C96.4639 181.73 96.7589 180.172 97.523 178.839C98.287 177.507 99.4744 176.478 100.89 175.923C85.5656 168.455 68.5387 158.2 62.3133 158.687C61.8538 146.221 60.0063 133.849 56.8062 121.807C54.598 113.013 51.3788 106.221 45.8983 103.488Z" fill="#55B2E6"/>
<g style="mix-blend-mode:multiply" opacity="0.5">
<path d="M96.7119 183.283C98.1097 186.222 100.356 188.658 103.15 190.264L109.988 194.864C112.036 195.486 112.169 194.594 111.557 193.105L114.377 195.081C116.293 196.271 117.836 195.081 117.038 193.511C116.133 195.784 114.005 193.863 111.025 191.969C112.435 194.675 109.562 193.971 108.045 192.375C103.829 189.958 100.006 186.891 96.7119 183.283Z" fill="#FCAF75"/>
</g>
<path d="M95.9618 242.155L86.9531 247.445L88.6425 250.421L97.6511 245.131L95.9618 242.155Z" fill="#333332"/>
<path d="M54.5444 228.471L89.3696 248.819C89.3696 250.415 88.2788 251.064 86.9486 250.28L56.9654 232.746C56.2576 232.279 55.669 231.649 55.2481 230.905C54.8271 230.162 54.5859 229.327 54.5444 228.471Z" fill="#333332"/>
<path d="M133.826 222.49L99.1069 202.305L54.5444 228.47L89.3697 248.818L133.826 222.49Z" fill="#575756"/>
<path d="M84.9808 240.538L86.9495 241.702L84.5019 243.136L82.5332 241.972L84.9808 240.538Z" fill="#DADADA"/>
<path d="M92.8274 238.266L90.3798 239.7L88.3845 238.537L90.8321 237.103L92.8274 238.266Z" fill="#DADADA"/>
<path d="M93.7601 235.37L95.7555 236.534L93.3079 237.968L91.3125 236.804L93.7601 235.37Z" fill="#DADADA"/>
<path d="M96.712 233.639L98.6808 234.802L96.2332 236.263L94.2644 235.073L96.712 233.639Z" fill="#DADADA"/>
<path d="M99.6393 231.934L101.608 233.097L99.1604 234.531L97.1917 233.368L99.6393 231.934Z" fill="#DADADA"/>
<path d="M107.488 229.661L105.014 231.095L103.045 229.932L105.493 228.471L107.488 229.661Z" fill="#DADADA"/>
<path d="M108.419 226.766L110.414 227.929L107.966 229.363L105.971 228.2L108.419 226.766Z" fill="#DADADA"/>
<path d="M111.371 225.034L113.34 226.198L110.892 227.632L108.897 226.468L111.371 225.034Z" fill="#DADADA"/>
<path d="M103.31 216.294L101.341 215.158L103.789 213.696L105.757 214.86L103.31 216.294Z" fill="#DADADA"/>
<path d="M106.238 214.59L104.269 213.426L106.717 211.992L108.685 213.156L106.238 214.59Z" fill="#DADADA"/>
<path d="M107.195 211.694L109.642 210.26L111.638 211.423L109.19 212.857L107.195 211.694Z" fill="#DADADA"/>
<path d="M72.1039 235.371L70.1353 234.207L72.5828 232.773L74.5515 233.937L72.1039 235.371Z" fill="#DADADA"/>
<path d="M75.0298 233.665L73.061 232.502L75.5087 231.067L77.4774 232.231L75.0298 233.665Z" fill="#DADADA"/>
<path d="M92.1379 223.627L87.695 226.225L86.7638 226.766L86.2849 227.063L85.0611 227.767L83.3585 228.768L80.9108 230.202L77.9844 231.934L75.989 230.77L84.0236 226.062L84.2896 225.9L90.1692 222.437L92.1379 223.627Z" fill="#DADADA"/>
<path d="M92.6428 223.33L90.6475 222.167L93.0951 220.732L95.0905 221.896L92.6428 223.33Z" fill="#DADADA"/>
<path d="M95.5681 221.598L93.5728 220.434L96.0203 219L98.0156 220.164L95.5681 221.598Z" fill="#DADADA"/>
<path d="M96.5007 218.73L98.9484 217.296L100.944 218.459L98.4961 219.893L96.5007 218.73Z" fill="#DADADA"/>
<path d="M103.789 216.592L106.236 215.158L108.231 216.322L105.784 217.756L103.789 216.592Z" fill="#DADADA"/>
<path d="M106.717 214.86L109.191 213.426L111.16 214.589L108.712 216.023L106.717 214.86Z" fill="#DADADA"/>
<path d="M109.668 213.156L112.116 211.694L114.084 212.885L111.637 214.319L109.668 213.156Z" fill="#DADADA"/>
<path d="M72.5825 235.668L75.0302 234.234L77.0255 235.398L74.5779 236.832L72.5825 235.668Z" fill="#DADADA"/>
<path d="M79.9517 233.666L77.5041 235.1L75.5088 233.936L77.983 232.502L79.9517 233.666Z" fill="#DADADA"/>
<path d="M82.8783 231.934L80.4307 233.395L78.4619 232.232L80.9095 230.771L82.8783 231.934Z" fill="#DADADA"/>
<path d="M85.8043 230.229L83.3567 231.663L81.3879 230.499L83.8356 229.065L85.8043 230.229Z" fill="#DADADA"/>
<path d="M88.7589 228.498L86.2847 229.932L84.3159 228.768L86.7636 227.334L88.7589 228.498Z" fill="#DADADA"/>
<path d="M91.6841 226.792L89.2365 228.227L87.2412 227.063L89.6888 225.629L91.6841 226.792Z" fill="#DADADA"/>
<path d="M94.61 225.061L92.1623 226.495L90.167 225.332L92.6412 223.897L94.61 225.061Z" fill="#DADADA"/>
<path d="M97.5375 223.329L95.0898 224.791L93.1211 223.627L95.5687 222.166L97.5375 223.329Z" fill="#DADADA"/>
<path d="M100.463 221.624L98.0151 223.058L96.0464 221.895L98.4939 220.461L100.463 221.624Z" fill="#DADADA"/>
<path d="M106.264 218.026L108.712 216.592L110.681 217.755L108.233 219.189L106.264 218.026Z" fill="#DADADA"/>
<path d="M113.607 216.05L111.159 217.484L109.19 216.321L111.638 214.887L113.607 216.05Z" fill="#DADADA"/>
<path d="M112.115 214.59L114.563 213.156L116.558 214.32L114.111 215.754L112.115 214.59Z" fill="#DADADA"/>
<path d="M75.0562 237.102L77.5038 235.668L79.4725 236.831L77.0249 238.265L75.0562 237.102Z" fill="#DADADA"/>
<path d="M82.4005 235.126L79.9529 236.56L77.9841 235.397L80.4318 233.936L82.4005 235.126Z" fill="#DADADA"/>
<path d="M80.9097 233.666L83.3572 232.231L85.3525 233.395L82.905 234.829L80.9097 233.666Z" fill="#DADADA"/>
<path d="M83.8354 231.934L86.2831 230.5L88.2784 231.663L85.8308 233.097L83.8354 231.934Z" fill="#DADADA"/>
<path d="M86.7896 230.229L89.2372 228.795L91.2059 229.958L88.7583 231.392L86.7896 230.229Z" fill="#DADADA"/>
<path d="M89.7148 228.497L92.1624 227.063L94.1311 228.227L91.6835 229.661L89.7148 228.497Z" fill="#DADADA"/>
<path d="M97.0856 226.496L94.6113 227.93L92.6426 226.793L95.0902 225.332L97.0856 226.496Z" fill="#DADADA"/>
<path d="M95.5679 225.061L98.0155 223.627L100.011 224.791L97.5632 226.225L95.5679 225.061Z" fill="#DADADA"/>
<path d="M103.418 222.788L100.491 224.493L98.4961 223.329L101.449 221.625L98.975 220.164L101.423 218.729L103.897 220.191L104.695 220.651L105.865 221.327L104.243 222.301L103.418 222.788Z" fill="#DADADA"/>
<path d="M110.707 220.651L108.712 219.488L111.159 218.054L113.155 219.217L110.707 220.651Z" fill="#DADADA"/>
<path d="M114.111 216.321L116.08 217.485L113.633 218.919L111.664 217.756L114.111 216.321Z" fill="#DADADA"/>
<path d="M114.591 216.051L117.039 214.59L119.007 215.753L116.56 217.187L114.591 216.051Z" fill="#DADADA"/>
<path d="M77.5039 238.563L79.9515 237.129L81.9469 238.293L79.4993 239.727L77.5039 238.563Z" fill="#DADADA"/>
<path d="M82.4265 237.995L80.4578 236.831L82.9054 235.397L84.8741 236.561L82.4265 237.995Z" fill="#DADADA"/>
<path d="M83.3833 235.127L85.8309 233.666L87.7996 234.829L85.352 236.291L83.3833 235.127Z" fill="#DADADA"/>
<path d="M88.7587 231.961L90.754 233.124L88.2798 234.559L86.311 233.395L88.7587 231.961Z" fill="#DADADA"/>
<path d="M89.2363 231.664L91.684 230.229L93.6793 231.393L91.2317 232.827L89.2363 231.664Z" fill="#DADADA"/>
<path d="M92.1624 229.959L94.61 228.524L96.6053 229.661L94.1577 231.122L92.1624 229.959Z" fill="#DADADA"/>
<path d="M97.085 229.39L95.1162 228.227L97.5638 226.793L99.5326 227.956L97.085 229.39Z" fill="#DADADA"/>
<path d="M98.0415 226.495L100.489 225.061L102.458 226.224L100.01 227.658L98.0415 226.495Z" fill="#DADADA"/>
<path d="M103.896 223.059L104.801 222.545L106.344 221.625L108.339 222.788L106.769 223.708L105.865 224.222L102.938 225.954L100.97 224.791L103.896 223.059Z" fill="#DADADA"/>
<path d="M118.076 222.085L115.628 223.546L113.633 222.382L116.107 220.948L118.076 222.085Z" fill="#DADADA"/>
<path d="M119.034 219.217L121.003 220.38L118.556 221.814L116.587 220.651L119.034 219.217Z" fill="#DADADA"/>
<path d="M121.96 217.485L123.929 218.649L121.481 220.083L119.512 218.919L121.96 217.485Z" fill="#DADADA"/>
<path d="M75.7489 219.217L81.6284 222.653C81.7756 222.734 81.9402 222.776 82.1073 222.776C82.2745 222.776 82.439 222.734 82.5862 222.653L91.4455 217.458C91.7115 217.296 91.7115 217.052 91.4455 216.89L85.5925 213.454C85.4406 213.373 85.2717 213.331 85.1003 213.331C84.9289 213.331 84.7601 213.373 84.6081 213.454L75.7489 218.649C75.4828 218.703 75.4828 218.946 75.7489 219.217Z" fill="#878787"/>
<path d="M133.958 223.086L143.535 187.45C144.17 187.992 144.661 188.687 144.963 189.472C145.265 190.256 145.369 191.106 145.264 191.942L136.964 222.869C136.591 224.168 135.261 224.276 133.984 223.113L133.958 223.086Z" fill="#4A4A49"/>
<path d="M99.0284 213.588L91.7388 249.955L136.275 223.789L143.538 187.45L99.0284 213.588Z" fill="#4A4A49"/>
<path d="M89.3955 249.251L98.9732 213.615C99.6082 214.157 100.099 214.852 100.401 215.637C100.704 216.421 100.807 217.271 100.702 218.107L92.4018 248.98C92.0294 250.279 90.6991 250.387 89.4221 249.224L89.3955 249.251Z" fill="#333332"/>
<path d="M117.783 220.19C117.544 221.732 118.475 222.355 119.885 221.57C120.636 221.117 121.289 220.514 121.806 219.798C122.322 219.082 122.691 218.268 122.891 217.403C123.131 215.861 122.199 215.238 120.789 215.996C120.037 216.453 119.382 217.061 118.866 217.781C118.349 218.502 117.981 219.321 117.783 220.19Z" fill="#DADADA"/>
</svg>
