<svg width="229" height="348" viewBox="0 0 229 348" fill="none" xmlns="http://www.w3.org/2000/svg">
<g clip-path="url(#clip0_124_2618)">
<path d="M163.888 44.0635C161.462 53.2182 162.091 64.444 158.946 77.7409C154.633 91.0678 150.56 113.76 136.184 130.088C135.225 131.559 128.127 117.902 128.457 116.311C134.806 87.1958 134.956 88.1263 138.999 75.5498C140.826 65.9148 142.833 56.5199 143.971 44.8139C144.66 37.0999 147.565 32.8077 151.578 31.1868C160.623 28.2153 169.099 35.419 163.888 44.0635Z" fill="#1D1D1B"/>
<path d="M169.909 237.122C170.562 240.36 170.774 243.672 170.538 246.968C169.909 249.969 162.092 251.83 162.092 251.83C162.092 251.83 151.13 262.185 141.816 261.465C136.335 261.045 134.478 259.604 133.609 257.983C133.296 257.106 133.225 256.16 133.404 255.246C133.583 254.332 134.006 253.483 134.628 252.791C135.706 251.29 147.087 246.457 149.932 241.895C151.34 239.674 153.646 235.021 153.646 235.021L154.604 226.317L169.58 225.687L168.831 235.952L169.909 237.122Z" fill="black"/>
<path d="M183.206 128.257L173.622 176.672C177.086 196.754 176.362 217.337 171.495 237.124C168.5 245.078 157.988 242.857 151.429 237.124C153.289 219.45 153.919 201.668 153.315 183.906L151.429 171.09C151.429 171.09 149.871 164.606 149.961 140.114C149.991 127.657 157.119 100.253 157.119 100.253L183.206 128.257Z" fill="#1D1D1B"/>
<path d="M203.182 253.932C204.303 257.561 204.73 261.37 204.44 265.158C203.849 266.564 202.986 267.84 201.902 268.911C200.818 269.983 199.532 270.829 198.121 271.401C196.595 274.758 194.162 277.62 191.098 279.662C188.033 281.705 184.458 282.846 180.78 282.957C168.799 283.257 168.799 278.395 168.949 278.395C169.036 277.405 169.326 276.444 169.8 275.571C170.274 274.698 170.922 273.933 171.705 273.322C175.936 270.001 179.994 266.464 183.864 262.727C185.059 261.085 186.064 259.313 186.859 257.444L187.399 248.77H203.392L203.182 253.932Z" fill="black"/>
<path d="M175.089 138.672C175.089 163.194 174.161 177.692 180.6 190.118C181.333 195.679 182.394 201.191 183.775 206.627C185.692 213.14 185.362 241.655 184.583 258.554C185.462 259.834 186.584 260.927 187.886 261.771C189.187 262.615 190.642 263.193 192.168 263.472C193.693 263.751 195.258 263.725 196.773 263.396C198.288 263.067 199.723 262.442 200.996 261.555C203.089 260.114 204.623 257.994 205.339 255.552C209.682 228.868 212.587 207.888 202.044 188.377C205.399 171.239 205.039 154.4 203.931 135.79C205.295 126.329 204.084 116.675 200.427 107.846C199.603 105.939 198.663 104.084 197.612 102.293L154.124 112.618C158.706 128.256 166.583 136.751 175.089 138.672Z" fill="#3C3C3B"/>
<g style="mix-blend-mode:multiply" opacity="0.25">
<path d="M195.006 189.999C208.364 203.746 204.53 230.37 200.996 261.376C203.1 259.945 204.636 257.821 205.339 255.373C209.682 228.869 212.587 207.888 202.044 188.378C205.399 171.239 205.039 154.401 203.931 135.791C205.295 126.33 204.084 116.676 200.427 107.847L174.79 147.617C189.795 157.042 203.272 167.157 195.006 189.999Z" fill="black"/>
</g>
<path d="M149.603 59.581C149.872 77.2001 154.125 112.618 154.125 112.618C197.493 138.972 203.154 115.89 203.154 115.89L205.041 75.3091L206.239 48.5653C202.259 43.8373 197.33 40.0022 191.773 37.3095C180.392 29.7155 170.029 26.5039 156.132 30.4359C153.579 37.3705 151.576 44.4963 150.142 51.7469C149.896 53.3858 149.786 55.0424 149.812 56.6995C149.633 57.6 149.563 58.5605 149.603 59.581Z" fill="#EDEDED"/>
<path d="M188.508 35.5092L182.039 22.0322L164.069 31.0369L167.902 41.1521C171.107 53.3985 190.545 45.8646 188.508 35.5092Z" fill="#FFC794"/>
<g style="mix-blend-mode:multiply" opacity="0.3">
<path d="M167.004 34.7579C167.004 42.0817 168.321 46.1038 172.724 46.554C178.235 46.554 184.255 38.0296 182.158 32.9269V26.9238L167.004 34.7579Z" fill="#CEA55F"/>
</g>
<path d="M169.699 53.8184V48.4156L172.454 46.5547L173.952 50.0365L172.454 54.809C171.675 66.1414 171.675 77.5141 172.454 88.8466L167.992 93.0487L164.997 86.0851C165.743 75.2254 167.315 64.4386 169.699 53.8184Z" fill="black"/>
<path d="M172.454 46.5547L167.182 50.1265C167.182 50.1265 163.379 36.4394 167.003 32.8676C170.627 29.2957 172.454 46.5547 172.454 46.5547Z" fill="#C6C6C6"/>
<path d="M168.95 27.0146C165.328 42.7758 164.88 59.1027 167.632 75.0395L166.644 134.71C166.615 135.818 166.306 136.901 165.745 137.856C165.185 138.812 164.392 139.609 163.44 140.173C162.488 140.737 161.408 141.049 160.303 141.081C159.197 141.112 158.102 140.862 157.12 140.353C152.774 137.958 148.971 134.688 145.948 130.748L146.936 63.8737C146.937 56.0229 148.18 48.2219 150.62 40.7618L156.041 30.4364L168.95 27.0146Z" fill="#3C3C3B"/>
<path d="M169.429 25.874C169.429 25.874 165.566 28.0051 165.446 27.9451C165.326 27.8851 160.774 36.4395 160.774 36.4395L164.038 39.0208C162.701 39.2396 161.38 39.5505 160.085 39.9513C159.755 44.9639 164.757 68.286 167.423 73.5687C165.506 55.5594 165.296 39.0208 169.429 25.874Z" fill="black"/>
<path d="M186.92 32.2666L190.304 36.4087C190.304 36.4087 184.703 52.287 174.64 52.287C174.094 50.3108 173.362 48.3912 172.454 46.554C179.732 45.4434 186.92 37.7895 186.92 32.2666Z" fill="#C6C6C6"/>
<path d="M173.532 1.20117C182.308 1.29122 187.309 5.58344 187.669 15.0083C187.399 24.9735 184.075 33.0176 176.347 38.4804C174.703 39.9833 172.745 41.0998 170.615 41.7488C168.486 42.3978 166.239 42.563 164.038 42.2324C158.677 42.4425 157.748 29.1456 157 19.5707C157.569 9.51547 163.679 3.87255 173.532 1.20117Z" fill="#FFC794"/>
<path d="M157.119 15.7886C159.096 20.6211 167.751 24.1029 176.467 21.7917L177.455 29.6858L181.079 27.7648L184.553 31.6368L185.871 29.7458C192.46 16.3589 190.543 6.54379 180.51 1.20103C167.482 -3.96164 154.303 8.64488 157.119 15.7886Z" fill="black"/>
<path d="M182.368 31.1565C183.249 30.455 183.974 29.5755 184.494 28.5751C184.745 28.0717 184.875 27.5168 184.875 26.9543C184.875 26.3917 184.745 25.8369 184.494 25.3335C184.255 24.8241 183.846 24.4139 183.338 24.173C182.83 23.9321 182.254 23.8755 181.709 24.0128C181.349 24.1666 181.026 24.3963 180.762 24.6864C180.499 24.9764 180.301 25.32 180.181 25.6936C179.956 26.4437 179.835 27.2215 179.822 28.0048C179.822 28.6952 179.822 29.4156 179.822 30.1059C179.738 30.5934 179.834 31.0947 180.092 31.5166C180.259 31.6682 180.464 31.773 180.685 31.8204C180.905 31.8678 181.135 31.8562 181.35 31.7868C181.72 31.6314 182.063 31.4187 182.368 31.1565Z" fill="#FFC794"/>
<path d="M166.583 75.309V134.23C166.583 141.793 173.921 148.787 181.348 150.558L182.427 150.798C191.921 152.449 200.067 150.798 206.147 143.864L207.285 79.7814L207.824 50.126C202.019 43.4731 195.219 37.7624 187.668 33.1973C188.507 41.3315 176.347 57.6599 166.583 75.309Z" fill="#3C3C3B"/>
<g style="mix-blend-mode:multiply" opacity="0.25">
<path d="M181.349 150.558L182.427 150.798C191.921 152.449 200.068 150.798 206.148 143.865L207.286 79.7817L190.963 66.875C198.81 100.552 197.582 129.457 181.349 150.558Z" fill="black"/>
</g>
<path d="M190.603 35.149V50.1568H185.721L188.716 55.7397L166.583 75.0397C176.377 58.5912 186.32 42.0226 187.548 33.2881L190.603 35.149Z" fill="black"/>
<path d="M223.579 138.072L224.148 146.446L223.818 153.92L221.662 159.443C221.272 160.734 219.805 161.094 220.284 159.443L218.367 165.446C217.978 167.247 216.151 167.277 216.271 165.446L217.648 157.492L212.677 168.418C211.898 170.038 209.891 170.189 210.371 167.997L213.845 155.991L210.161 162.475L206.567 166.857C205.069 168.328 203.153 167.547 204.051 165.686L207.885 159.683C207.885 159.683 209.532 155.211 210.131 153.08C210.131 152.72 209.232 148.427 209.232 148.427L200.607 152.93C198.271 153.68 197.342 151.669 199.439 150.138L208.034 142.364L213.665 139.002L214.025 138.702L215.282 134.74L223.609 135.371L223.579 138.072Z" fill="#FFC794"/>
<path d="M207.406 49.2556C216.75 59.2808 221.393 70.9268 228.221 88.0957C229.758 105.249 228.749 122.536 225.226 139.392C221.019 140.546 216.539 140.163 212.587 138.312C212.887 124.354 211.479 109.347 212.887 95.4495C205.549 90.8271 198.211 77.4402 190.274 65.7041C187.908 49.4057 197.373 40.5211 207.406 49.2556Z" fill="#3C3C3B"/>
<path d="M168.411 87.1353C167.849 87.1353 167.393 86.4365 167.393 85.5745C167.393 84.7125 167.849 84.0137 168.411 84.0137C168.974 84.0137 169.429 84.7125 169.429 85.5745C169.429 86.4365 168.974 87.1353 168.411 87.1353Z" fill="black"/>
<path d="M167.393 105.055C167.393 105.925 167.842 106.616 168.411 106.616C168.98 106.616 169.429 105.925 169.429 105.055C169.429 104.184 168.98 103.464 168.411 103.464C167.842 103.464 167.393 104.034 167.393 105.055Z" fill="black"/>
<path d="M167.393 124.204C167.393 125.075 167.842 125.795 168.411 125.795C168.98 125.795 169.429 125.075 169.429 124.204C169.429 123.334 168.98 122.644 168.411 122.644C167.842 122.644 167.393 123.334 167.393 124.204Z" fill="black"/>
<path d="M116.326 136.031L119.321 143.595L119.501 144.075L120.459 143.775C121.148 143.415 131.93 137.322 132.14 137.081C134.398 134.264 136.087 131.032 137.112 127.567L137.561 123.905L137.411 123.274L136.004 117.271L133.009 116.221C131.092 116.221 131.212 117.391 132.08 118.052L133.158 119.462L128.187 123.064L124.533 124.085L126.869 120.663C127.923 120.185 128.926 119.602 129.864 118.922C130.942 118.172 131.511 116.581 130.133 116.491L123.514 119.192L118.842 126.066L116.326 136.031Z" fill="#FCAF75"/>
<g style="mix-blend-mode:multiply" opacity="0.3">
<path d="M137.592 123.905L137.443 123.274L131.452 132.699C127.14 136.781 123.036 138.552 119.233 137.352V143.595L119.412 144.075L120.371 143.775C121.06 143.415 131.842 137.322 132.051 137.082L137.592 123.905Z" fill="#FCAF75"/>
</g>
<path d="M9.7347 174.091L10.3636 180.904L11.6815 184.836L14.6765 190.119C15.5451 191.59 17.0126 191.29 16.9827 189.939L18.3903 192.43C19.6482 194.381 21.3854 192.731 20.5168 190.689L18.3903 185.497L21.7747 192.1C23.1524 193.991 25.0094 192.791 24.2007 190.209L21.2057 182.945L24.2007 188.648C25.1591 189.939 27.1957 189.129 26.6866 186.757L23.8113 177.092C23.5553 175.896 23.6703 174.65 24.1408 173.521C24.7697 172.29 29.5618 174.871 29.5618 174.871C31.269 175.832 32.7964 176.702 33.9645 177.423C35.5818 177.663 36.2707 177.243 36.061 176.162L32.7365 172.68L28.9927 169.408L27.3455 167.968C25.1624 166.374 22.6904 165.222 20.0675 164.576L19.8878 163.886L19.4685 162.505L15.8446 163.075L10.4535 163.886L10.7231 168.088L10.3936 170.009L9.7347 174.091Z" fill="#FCAF75"/>
<g style="mix-blend-mode:multiply" opacity="0.3">
<path d="M24.6502 173.04L17.3124 171.329L13.3589 177.963L16.7733 189.969C16.6235 186.787 16.5037 182.975 18.6002 182.225L22.344 181.654L19.349 179.643L19.7982 176.642L26.1477 175.651L24.6502 173.04Z" fill="#FCAF75"/>
</g>
<path d="M26.2358 84.8841L24.0495 111.058L22.2524 132.819C20.6651 145.425 18.8681 155.571 20.0062 162.174C20.128 162.778 20.128 163.401 20.0062 164.005C19.6322 164.928 19.0759 165.765 18.3708 166.466C17.6657 167.168 16.8262 167.719 15.903 168.087C14.1579 169.002 12.307 169.697 10.3921 170.158C7.24733 157.191 4.82134 144.705 5.8696 134.62L7.96612 108.957C8.56512 94.1589 12.0394 83.0231 26.2358 84.8841Z" fill="#EDEDED"/>
<g style="mix-blend-mode:multiply" opacity="0.3">
<path d="M28.9912 169.529L15.9029 168.088C17.7059 167.338 19.1386 165.903 19.8863 164.096L20.096 164.786C22.7081 165.417 25.1775 166.537 27.3739 168.088L28.9912 169.529Z" fill="#FCAF75"/>
</g>
<g style="mix-blend-mode:multiply" opacity="0.15">
<path d="M22.3436 132.819C20.7562 145.425 18.9592 155.57 20.0973 162.174C20.2192 162.778 20.2192 163.401 20.0973 164.005C19.7133 164.936 19.1432 165.778 18.4221 166.48C17.701 167.182 16.8441 167.729 15.9043 168.087C15.9043 166.466 15.9043 164.875 15.9043 163.254C15.0657 138.912 7.75783 118.501 16.084 107.275L24.0508 111.057L22.3436 132.819Z" fill="#3C3C3B"/>
</g>
<path d="M87.5143 322.788C87.5143 318.075 83.9203 316.274 78.5293 315.704C73.857 315.704 67.5675 317.805 59.2712 319.726L49.8369 324.889C48.2079 329.084 47.9664 333.693 49.148 338.036C50.2985 339.218 51.7142 340.107 53.2772 340.629C54.8402 341.151 56.5052 341.291 58.1331 341.037L68.7355 336.535L69.5142 335.004C78.11 333.954 87.5443 330.172 87.5143 322.788Z" fill="#1D1D1B"/>
<path d="M53.0715 303.937C53.0715 300.125 49.6572 299.435 44.5357 299.045C35.281 299.045 34.8917 303.697 26.3858 303.487L18.0297 308.59C16.5732 313.152 16.4486 318.036 17.6703 322.667C18.9787 323.666 20.4783 324.384 22.0757 324.776C23.673 325.168 25.3339 325.227 26.9549 324.948L35.5506 319.876L36.2994 318.315C44.356 317.114 53.0715 311.111 53.0715 303.937Z" fill="#1D1D1B"/>
<path d="M22.7921 173.04L53.581 186.097C53.7021 190.917 53.502 195.74 52.982 200.534C51.0352 214.762 45.3147 236.253 45.3147 236.253C41.1816 254.532 39.5343 277.194 38.5759 301.116C38.3962 309.731 25.6374 317.265 17.6107 309.13C15.2446 279.955 15.2446 251.621 22.1032 232.831C18.8386 218.033 21.9235 201.495 22.852 184.416C21.8936 183.906 23.6606 173.4 22.7921 173.04Z" fill="#1D1D1B"/>
<path d="M45.8245 203.686C45.8245 220.735 45.6448 234.512 49.748 249.31C43.9676 268.07 45.525 295.954 49.5084 325.099C51.4993 327.494 54.3117 329.055 57.393 329.477C60.4743 329.9 63.6018 329.151 66.1608 327.38C67.7 326.285 68.9009 324.779 69.6264 323.033C70.352 321.287 70.5729 319.371 70.264 317.505L73.259 252.732C73.259 252.732 77.7815 231.271 78.9496 217.073C80.1176 202.876 75.086 170.399 75.086 170.399C72.3731 171.138 69.6105 171.68 66.8197 172.02C48.4901 174.331 31.6581 167.788 26.4168 157.282C26.1472 158.033 25.8776 158.813 25.638 159.593C23.6621 165.989 22.5539 172.622 22.3435 179.314C21.6846 194.291 36.3602 199.814 45.8245 203.686Z" fill="#3C3C3B"/>
<path d="M79.2485 116.101C78.0228 125.152 77.4722 134.282 77.6013 143.415C77.6013 146.717 77.6013 149.958 77.4216 153.11C77.2795 158.932 76.5469 164.725 75.2352 170.399C72.6938 171.56 70.0831 172.563 67.4182 173.401C51.6044 178.413 37.1983 175.952 25.7872 159.653C19.367 142.423 15.1894 124.436 13.3579 106.136C13.3579 95.2401 16.9519 87.4961 26.2066 84.8848C42.6792 88.8768 59.4813 99.0521 76.4931 113.79L79.2485 116.101Z" fill="#EDEDED"/>
<path d="M61.5474 86.0851L59.96 101.093C50.3759 101.093 35.3708 94.3693 37.2577 89.0866L42.2893 79.3916L61.5474 86.0851Z" fill="#FCAF75"/>
<path d="M66.1308 87.9463C62.2971 92.2985 56.5766 91.7282 50.7064 90.1674C42.1705 86.2054 36.0307 80.3523 36.8693 69.1566C36.1805 61.0524 39.8643 52.588 53.6115 53.0082C62.357 53.3084 69.8446 56.49 70.3538 65.8548C70.2639 66.0349 70.803 83.624 66.1308 87.9463Z" fill="#FCAF75"/>
<path d="M60.5 95.8699L64.0042 103.794C47.5914 101.933 32.8858 95.7798 36.5397 88.1859L39.5348 84.7041C37.3184 90.0469 53.4317 96.7103 60.5 95.8699Z" fill="#C6C6C6"/>
<path d="M70.264 63.6034C69.4613 66.8262 67.471 69.6251 64.6932 71.4374C64.9796 73.8976 65.0697 76.3767 64.9628 78.8513C64.5734 78.8513 60.7697 82.273 60.7697 82.273L58.823 87.7659C52.2639 92.5083 42.53 88.9064 39.5649 84.7643C37.8278 82.5432 35.9709 73.6285 36.5699 65.1041C37.5882 57.9604 42.7397 51.0269 53.7015 50.5466C64.6633 50.0664 71.2224 56.2796 70.264 63.6034Z" fill="#1D1D1B"/>
<path d="M63.7939 79.9023C64.8422 78.7317 63.2548 76.0003 62.0568 75.6401C60.8588 75.2799 59.511 77.471 59.3613 78.6416C59.2093 79.4277 59.2159 80.2363 59.3805 81.0199C59.5451 81.8034 59.8644 82.546 60.3197 83.204C61.4278 84.8548 63.3147 83.204 63.734 81.8833C64.1533 80.5626 63.135 80.6527 63.7939 79.9023Z" fill="#FCAF75"/>
<path d="M66.8495 138.492C67.2381 140.519 67.738 142.524 68.347 144.495C70.9974 147.752 74.0122 150.693 77.3321 153.26C83.0277 157.638 89.6115 160.711 96.6201 162.265C107.881 157.822 111.595 154.611 121.06 143.565C122.527 140.563 121.688 137.562 117.226 134.11C107.612 137.592 104.317 137.112 97.878 140.113C90.8097 128.587 83.7414 116.521 76.5234 113.729C67.2688 118.322 64.5732 126.816 66.8495 138.492Z" fill="#EDEDED"/>
<g style="mix-blend-mode:multiply" opacity="0.25">
<path d="M79.0098 217.043C77.8417 231.27 73.2594 252.731 73.2594 252.731L70.2643 317.505C70.5824 319.373 70.369 321.293 69.6486 323.044C68.9282 324.796 67.7299 326.309 66.1911 327.41C69.0064 300.156 70.2643 274.583 66.1911 254.833C72.1811 232.381 75.1762 208.879 68.078 191.56C68.078 184.626 68.8866 178.383 67.4191 173.34C70.084 172.502 72.6947 171.5 75.2361 170.339C75.2361 170.339 80.1479 202.876 79.0098 217.043Z" fill="black"/>
</g>
<g style="mix-blend-mode:multiply" opacity="0.15">
<path d="M121.03 143.475C112.194 152.87 108.63 157.282 96.5903 162.084C89.5846 160.55 83.0067 157.474 77.3323 153.08C77.1902 158.902 76.4576 164.695 75.1459 170.369C72.6045 171.53 69.9939 172.532 67.3289 173.37C67.2244 172.916 67.0739 172.473 66.8797 172.049C65.9415 169.848 64.4836 167.909 62.6314 166.397C60.7792 164.886 58.5883 163.849 56.2473 163.375C62.9262 159.533 65.2324 150.498 66.8497 138.522C67.2391 135.941 67.5985 133.179 67.9878 130.298C70.415 135.178 73.6335 139.621 77.512 143.445C82.5736 148.307 88.7134 151.489 97.998 156.321C101.562 158.152 109.739 147.077 121.03 143.475Z" fill="#3C3C3B"/>
</g>
<path d="M126.96 117.872L124.534 124.205V130.959C124.534 133.18 126.96 132.85 127.049 131.259L128.188 123.065C131.314 121.929 134.069 119.957 136.154 117.362C135.482 116.345 134.476 115.597 133.311 115.246C132.146 114.895 130.895 114.964 129.775 115.441C127.342 116.018 125.164 117.378 123.575 119.313L126.96 117.872Z" fill="#FFC794"/>
<path d="M126.959 139.332V137.141C126.958 136.535 127.195 135.953 127.618 135.52C130.613 132.249 133.758 129.517 136.184 130.087V133.089L130.194 139.362L125.342 140.953L126.959 139.332Z" fill="#FFC794"/>
</g>
<defs>
<clipPath id="clip0_124_2618">
<rect width="229" height="348" fill="white" transform="matrix(-1 0 0 1 229 0)"/>
</clipPath>
</defs>
</svg>
